<?xml version="1.0" encoding="utf-8"?>
<!-- Generator: Adobe Illustrator 16.0.0, SVG Export Plug-In . SVG Version: 6.00 Build 0)  -->
<!DOCTYPE svg PUBLIC "-//W3C//DTD SVG 1.0//EN" "http://www.w3.org/TR/2001/REC-SVG-20010904/DTD/svg10.dtd">
<svg version="1.0" id="shmoothies-logo_xA0_Image_1_"
	 xmlns="http://www.w3.org/2000/svg" xmlns:xlink="http://www.w3.org/1999/xlink" x="0px" y="0px" width="742.32px"
	 height="385.44px" viewBox="0 0 742.32 385.44" enable-background="new 0 0 742.32 385.44" xml:space="preserve">
<g>
	<path fill-rule="evenodd" clip-rule="evenodd" fill="#2A1018" d="M430.899,80.625c-0.38-5.036-0.746-9.817-1.099-14.599
		c-0.088-1.195-0.204-2.396-0.175-3.591c0.025-1.023,0.71-1.607,1.714-1.646c0.897-0.035,1.543,0.446,1.725,1.352
		c0.157,0.78,0.242,1.58,0.303,2.375c0.358,4.785,0.696,9.572,1.053,14.358c0.131,1.771,0.145,1.767,1.966,1.763
		c7.199-0.014,14.399-0.027,21.599-0.039c0.561-0.001,1.12,0.016,1.68,0.003c0.688-0.016,1.299,0.131,1.525,0.863
		c0.181,0.583,0.044,1.166-0.513,1.465c-0.763,0.411-0.835,1.062-0.892,1.81c-0.633,8.365-1.275,16.73-1.938,25.093
		c-0.593,7.487-1.221,14.971-1.819,22.457c-0.063,0.783-0.205,1.576,0.065,2.526c0.818-0.518,1.184-1.333,1.581-2.042
		c2.963-5.287,6.57-10.15,9.925-15.178c2.26-3.387,3.985-7.113,6.562-10.297c0.615-0.76,0.426-1.676,0.427-2.542
		c0.009-6.8,0.005-13.6,0.005-20.399c0-10.16,0.007-20.32-0.002-30.479c-0.003-2.812,0.266-5.581,1.085-8.284
		c0.637-2.1,1.707-3.938,3.165-5.579c2.447-2.755,7.557-3.681,10.658,0.319c2.916,3.762,4.509,8.071,5.359,12.668
		c1.596,8.618,0.39,17.049-2.154,25.304c-2.504,8.123-6.061,15.83-10.704,22.933c-2.824,4.321-4.504,8.688-3.845,13.882
		c0.21,1.654,0.047,3.355,0.068,5.035c0.001,0.146,0.104,0.292,0.162,0.438c0.749,0.32,0.955-0.385,1.296-0.737
		c2.782-2.873,5.494-5.815,8.315-8.648c3.349-3.361,7.079-6.214,11.448-8.169c2.66-1.19,5.418-1.776,8.345-1.853
		c2.738-0.072,4.57,1.141,5.841,3.416c1.149,2.06,1.624,4.326,1.854,6.642c0.127,1.271,0.158,2.555,0.16,3.833
		c0.016,6.72,0.021,13.439-0.001,20.159c-0.006,1.469,0.226,2.864,0.877,4.178c1.955,3.948,5.187,5.297,9.347,3.817
		c3.499-1.245,6.144-3.677,8.463-6.47c2.455-2.957,4.457-6.235,6.524-9.468c0.908-1.42,1.461-3.181,3.37-3.796
		c0.766-0.247,0.438-1.116,0.44-1.711c0.021-5.52,0.011-11.04,0.015-16.56c0-0.639-0.015-1.283,0.049-1.917
		c0.104-1.047,0.75-1.545,1.778-1.547c1.009-0.001,1.711,0.447,1.844,1.493c0.101,0.79,0.121,1.593,0.122,2.39
		c0.008,9.44,0.012,18.879-0.001,28.319c-0.003,1.858,0.077,3.691,1.127,5.31c3.075,4.738,6.007,5.184,10.146,4.005
		c2.438-0.695,4.451-2.144,6.211-3.925c3.792-3.842,6.657-8.364,9.439-12.947c0.538-0.885,0.454-1.84,0.564-2.779
		c0.76-6.447,3.12-12.188,7.508-17.032c1.514-1.671,3.228-3.089,5.271-4.09c4.016-1.966,10.558-1.626,14.055,2.579
		c3.559,4.281,3.433,11.395-0.473,15.377c-3.426,3.495-7.712,5.299-12.423,6.236c-2.824,0.562-5.669,0.952-8.559,0.927
		c-0.552-0.004-1.12-0.085-1.639,0.185c-0.128,9.241,4.551,14.36,11.143,15.609c7.066,1.338,13.471-0.263,18.945-5.099
		c2.543-2.246,4.556-4.909,6.316-7.793c4.282-7.011,8.562-14.024,12.934-20.98c0.734-1.168,0.803-1.809-0.272-2.792
		c-2.433-2.222-4.098-4.872-3.96-8.378c0.098-2.495,1.226-4.417,3.006-6.037c0.541-0.493,1.223-0.771,1.917-0.953
		c3.883-1.011,8.484,2.701,8.332,6.723c-0.109,2.869-1.243,5.42-2.522,7.922c-0.798,1.562-0.791,1.561,0.686,2.568
		c3.696,2.522,7.774,4.382,11.592,6.695c1.709,1.036,3.393,2.103,4.951,3.363c3.916,3.168,6.624,6.807,4.64,12.541
		c5.372-0.264,10.278-0.769,13.773-5.2c0.441-0.56,0.913-1.132,1.481-1.549c0.705-0.518,1.529-0.423,2.219,0.102
		c0.724,0.551,0.833,1.3,0.52,2.146c-0.285,0.77-0.817,1.364-1.31,1.99c-2.808,3.567-6.783,4.897-11.017,5.682
		c-1.882,0.349-3.781,0.667-5.687,0.793c-1.062,0.071-1.585,0.521-1.98,1.389c-0.362,0.799-0.755,1.588-1.191,2.349
		c-1.795,3.126-4.229,5.62-7.485,7.209c-4.586,2.237-8.816,1.343-12.795-1.576c-3.799-2.787-2.718-8.952,0.548-10.96
		c2.047-1.259,4.258-1.781,6.584-1.929c1.834-0.116,3.678-0.094,5.517-0.119c1.12-0.016,2.247,0.069,3.358-0.028
		c1.293-0.113,2.909,0.381,3.681-1.085c0.945-1.797,0.863-3.723-0.164-5.508c-0.772-1.34-1.978-2.285-3.221-3.176
		c-3.313-2.374-6.758-4.551-10.271-6.607c-2.273-1.331-4.505-2.717-6.621-4.234c-0.801,0.172-0.912,0.899-1.25,1.395
		c-4.187,6.138-8.264,12.344-11.903,18.829c-2.006,3.575-4.437,6.835-7.462,9.63c-6.78,6.264-14.809,8.007-23.585,5.998
		c-5.865-1.343-9.658-5.35-11.702-11.005c-0.348-0.962-0.387-2.039-1.146-3.097c-1.052,1.53-2.039,2.957-3.019,4.39
		c-1.911,2.798-4.166,5.263-6.962,7.204c-2.959,2.055-6.181,3.223-9.844,3.223c-2.088,0-3.965-0.5-5.632-1.675
		c-3.884-2.74-6.206-6.37-6.167-11.276c0.012-1.5,0.002-3.001,0.002-4.582c-1.096,0.126-1.278,0.914-1.634,1.452
		c-2.34,3.541-4.768,7.006-7.815,9.994c-1.782,1.748-3.758,3.226-5.948,4.415c-2.531,1.375-5.246,1.872-8.102,1.59
		c-1.898-0.188-3.54-1.012-4.888-2.315c-2.682-2.593-4.373-5.656-4.355-9.52c0.029-6.72,0.018-13.439,0-20.159
		c-0.006-2.401-0.144-4.795-0.756-7.134c-0.788-3.016-1.68-3.546-4.77-3.314c-3.802,0.286-7.057,1.858-10.132,3.944
		c-3.332,2.261-6.174,5.072-8.911,7.994c-2.681,2.86-5.289,5.788-8.019,8.599c-0.856,0.882-1.2,1.749-1.187,2.96
		c0.056,5.199,0.027,10.399,0.019,15.599c-0.001,0.718,0.016,1.452-0.123,2.149c-0.184,0.924-0.896,1.242-1.792,1.24
		c-0.945-0.002-1.508-0.437-1.629-1.385c-0.041-0.316-0.037-0.639-0.043-0.958c-0.116-6.313,0.029-12.626-0.109-18.942
		c-0.07-3.175,0.016-6.385,0.096-9.578c0.016-0.612,0.175-1.264-0.217-1.849c-0.725-0.003-0.843,0.641-1.107,1.077
		c-4.146,6.825-8.94,13.232-12.947,20.147c-1.083,1.868-2.415,3.591-3.964,5.101c-0.869,0.847-1.36,1.738-1.226,2.949
		c0.009,0.079-0.007,0.16-0.012,0.239c-0.229,4.068-0.828,4.631-4.915,4.631c-7.68,0-15.359,0.008-23.04-0.002
		c-3.052-0.004-3.629-0.508-3.904-3.517c-0.458-5.012-0.863-10.028-1.312-15.041c-0.046-0.52,0.144-1.118-0.359-1.564
		c-0.76,0.007-1.022,0.691-1.444,1.101c-4.797,4.66-10.585,6.297-17.125,5.7c-0.716-0.065-1.507,0.045-2.137-0.223
		c-2.644-1.126-3.771,0.277-5.223,2.319c-5.523,7.776-13.333,11.124-22.7,10.001c-9.706-1.163-16.411-6.557-19.81-15.846
		c-0.158-0.43-0.334-0.854-0.491-1.251c-0.635-0.044-0.909,0.422-1.272,0.705c-4.656,3.617-9.937,4.906-15.743,4.265
		c-1.031-0.114-2.072-0.184-3.089-0.379c-2.107-0.404-2.098-0.43-3.199,1.303c-3.305,5.2-7.859,8.798-13.811,10.456
		c-12.328,3.434-25.183-2.533-29.643-15.054c-1.003,0.242-1.201,1.219-1.66,1.9c-3.018,4.482-6.451,8.536-11.079,11.472
		c-3.274,2.077-6.839,2.621-10.577,2.087c-4.321-0.617-7.227-3.736-8.141-8.594c-0.206-1.091-0.239-2.226-0.242-3.341
		c-0.021-6.72-0.019-13.44-0.008-20.16c0.005-2.692-0.449-5.23-2.076-7.48c-2.257-3.12-5.076-3.731-8.258-1.58
		c-3.887,2.627-6.901,6.178-9.888,9.729c-2.057,2.445-4.339,4.889-5.478,7.811c-0.989,2.535-0.255,5.534-0.283,8.328
		c-0.044,4.399,0.013,8.8-0.033,13.199c-0.018,1.733-0.611,2.256-2.083,2.23c-0.945-0.016-1.545-0.445-1.707-1.344
		c-0.126-0.7-0.131-1.428-0.132-2.144c-0.008-9.84-0.046-19.68,0.021-29.519c0.019-2.706-0.794-5.006-2.469-7.066
		c-1.081-1.329-2.43-1.965-4.179-1.884c-2.813,0.129-5.288,1.123-7.521,2.762c-2.935,2.153-5.272,4.888-7.362,7.834
		c-1.383,1.951-3.115,3.821-3.858,6.01c-0.659,1.94-0.183,4.271-0.186,6.43c-0.008,5.28-0.002,10.56-0.005,15.84
		c0,0.559,0.037,1.129-0.055,1.675c-0.174,1.032-0.851,1.437-1.885,1.412c-1.041-0.025-1.682-0.487-1.813-1.514
		c-0.08-0.63-0.032-1.278-0.032-1.917c-0.001-11.04-0.008-22.08,0.006-33.119c0.001-1.458-0.063-2.874-0.961-4.117
		c-1.126-1.559-2.147-1.701-3.522-0.312c-2.373,2.396-4.337,5.13-6.1,7.989c-2.305,3.737-4.471,7.56-6.735,11.322
		c-2.964,4.924-5.9,9.874-9.82,14.133c-2.845,3.092-6.013,5.761-10.129,6.992c-7.446,2.227-14.476-2.911-14.577-10.72
		c-0.093-7.199-0.029-14.399-0.021-21.6c0.003-2.332-0.219-4.629-0.923-6.861c-0.78-2.474-1.682-2.989-4.222-2.818
		c-5.662,0.379-10.08,3.304-14.167,6.862c-3.687,3.208-6.912,6.882-10.201,10.487c-1.342,1.472-3.25,2.717-3.91,4.443
		c-0.697,1.823-0.232,4.097-0.24,6.173c-0.015,3.76,0,7.52-0.007,11.28c-0.001,0.716,0.069,1.439-0.202,2.135
		c-0.339,0.871-0.996,1.178-1.889,1.153c-0.978-0.027-1.456-0.608-1.589-1.477c-0.096-0.626-0.051-1.276-0.051-1.915
		c-0.002-9.038-0.001-18.075-0.001-27.113c0-0.785,0-1.569,0-2.525c-0.806,0.331-0.997,0.96-1.312,1.443
		c-2.095,3.211-4.229,6.4-6.225,9.672c-1.229,2.016-2.922,3.568-4.609,5.131c-1.925,1.783-4.351,2.61-6.846,3.254
		c-2.559,0.66-5.17,1.035-7.789,1.261c-1.139,0.099-1.699,0.562-2.143,1.509c-0.951,2.03-2.035,3.983-3.603,5.627
		c-1.445,1.515-3.028,2.836-4.916,3.778c-4.273,2.132-9.399,1.503-12.989-1.616c-3.33-2.894-3.167-7.927,0.343-10.62
		c2.128-1.633,4.635-2.094,7.209-2.196c2.876-0.115,5.759-0.065,8.638-0.12c3.591-0.069,4.309-0.91,4.08-4.453
		c-0.114-1.755-1.048-3.012-2.284-4.051c-1.281-1.077-2.682-2.014-4.058-2.973c-4.714-3.284-9.875-5.859-14.7-9.307
		c-3.109,4.888-6.515,9.499-9.387,14.465c-0.436,0.753-0.787,1.562-1.559,2.09c-0.734,0.502-1.538,0.646-2.241,0.205
		c-0.788-0.494-0.729-1.381-0.433-2.165c0.195-0.515,0.541-0.975,0.83-1.452c2.942-4.848,5.858-9.713,8.854-14.527
		c0.593-0.953,0.712-1.53-0.195-2.381c-1.939-1.819-3.54-3.877-4.042-6.632c-0.553-3.032,0.419-5.527,2.505-7.625
		c1.328-1.335,2.995-1.761,4.86-1.251c3.897,1.065,6.97,3.8,5.481,8.939c-0.603,2.084-1.327,4.099-2.417,5.968
		c-0.472,0.81-0.533,1.348,0.375,1.927c2.218,1.417,4.46,2.789,6.782,4.027c3.169,1.69,6.32,3.415,9.219,5.547
		c1.026,0.755,1.972,1.626,2.912,2.491c2.723,2.505,4.021,5.513,3.225,9.26c-0.093,0.436-0.275,0.909,0.06,1.578
		c5.215-0.245,10.045-1.101,13.733-5.673c3.172-3.932,5.797-8.176,8.473-12.413c1.15-1.822,2.082-3.794,3.515-5.42
		c0.794-0.902,0.647-1.92,0.647-2.938c0.006-16.879,0.003-33.759,0.005-50.639c0-3.135,0.377-6.216,1.388-9.201
		c0.679-2.004,1.766-3.757,3.287-5.225c3.061-2.953,7.407-2.771,10.137,0.489c2.837,3.389,4.309,7.432,5.296,11.671
		c1.884,8.091,0.854,16.069-1.21,23.937c-2.348,8.948-6.421,17.173-11.108,25.108c-1.339,2.268-3.174,4.404-3.849,6.858
		c-0.676,2.458-0.19,5.238-0.205,7.876c-0.009,1.728-0.001,3.457-0.001,5.734c1.879-1.981,3.393-3.566,4.894-5.161
		c3.235-3.438,6.444-6.902,10.312-9.664c3.207-2.29,6.613-4.146,10.517-4.985c1.19-0.256,2.384-0.214,3.574-0.327
		c3.306-0.311,5.278,1.46,6.5,4.246c1.237,2.819,1.643,5.835,1.655,8.892c0.027,6.959,0.006,13.919,0.014,20.879
		c0.001,1.033-0.06,2.064,0.344,3.072c1.822,4.55,5.068,6.802,10.249,4.764c3.126-1.23,5.545-3.45,7.704-5.946
		c1.043-1.206,2.019-2.488,2.887-3.826c3.387-5.22,6.913-10.348,10.126-15.685c2.544-4.227,4.775-8.675,8.082-12.414
		c0.852-0.963,1.727-1.89,2.838-2.558c2.565-1.541,5.417-1.094,7.308,1.229c1.503,1.848,2.36,3.965,2.312,6.397
		c-0.024,1.235-0.004,2.47-0.004,4.249c0.818-1.093,1.279-1.704,1.736-2.318c2.021-2.715,4.38-5.094,7.151-7.039
		c3.084-2.165,6.512-3.318,10.298-3.416c1.755-0.045,3.313,0.439,4.695,1.488c3.435,2.607,5.444,5.999,5.607,10.375
		c0.036,0.95,0.005,1.903,0.005,2.824c0.945,0.23,1.038-0.492,1.331-0.875c2.633-3.437,5.562-6.607,8.641-9.641
		c1.254-1.235,2.617-2.352,4.095-3.316c4.212-2.748,8.184-2.291,11.596,1.431c2.589,2.824,3.879,6.221,3.907,10.041
		c0.046,6.56,0.015,13.12,0.017,19.68c0,0.64-0.013,1.28,0.003,1.92c0.184,7.366,5.228,9.308,10.875,7.524
		c2.259-0.713,4.087-2.146,5.845-3.663c3.438-2.967,5.905-6.685,8.186-10.562c1.348-2.292,2.133-4.632,2.557-7.326
		c1.474-9.382,7.115-15.531,16.006-18.543c13.148-4.455,27.45,3.471,30.666,16.813c0.82,3.403,0.772,6.417-0.187,10.984
		c1.657,0.976,3.558,0.82,5.342,0.879c5.303,0.176,10.117-1.135,13.881-5.196c0.798-0.86,1.226-1.754,1.263-2.971
		c0.33-10.758,9.492-19.894,20.104-21.463c10.55-1.561,21.771,4.394,25.77,14.505c1.667,4.216,2.029,8.536,1.074,12.936
		c-0.236,1.088-0.203,1.667,0.979,1.831c7.413,1.028,14.092,0.134,19.275-6.189c1.479-1.806,1.889-3.264,1.679-5.47
		c-0.809-8.51-1.314-17.048-2.097-25.561c-0.233-2.54-0.27-5.086-0.54-7.618c-0.148-1.383-0.02-2.824-1.298-3.929
		c-0.688-0.596-0.316-1.597,0.592-1.872c0.593-0.18,1.261-0.144,1.896-0.146C423.307,80.618,426.976,80.625,430.899,80.625z
		 M444.934,143.074c0.188,0.104,0.34,0.287,0.588,0.04c0.774-0.771,1.72-0.976,2.597-0.32c0.994,0.744,0.91,1.771,0.359,2.797
		c-0.063,0.117-0.009,0.297-0.009,0.46c0.588,0.346,1.234,0.181,1.851,0.184c2.173,0.009,2.244-0.056,2.387-2.265
		c0.158-2.468,0.133-4.958,0.447-7.405c0.927-7.21,1.128-14.477,1.791-21.707c0.904-9.863,1.572-19.747,2.355-29.621
		c0.157-1.978,0.152-2.047-1.812-2.053c-5.917-0.017-11.834-0.016-17.75-0.002c-3.24,0.007-3.051-0.379-2.805,2.942
		c0.867,11.717,1.764,23.433,2.643,35.149c0.06,0.795,0.143,1.602,0.073,2.391c-0.078,0.885-0.649,1.475-1.547,1.573
		c-0.918,0.101-1.555-0.402-1.791-1.26c-0.189-0.685-0.25-1.414-0.303-2.127c-0.712-9.646-1.407-19.293-2.118-28.938
		c-0.2-2.71-0.469-5.416-0.642-8.127c-0.066-1.046-0.359-1.609-1.548-1.581c-2.558,0.062-5.118,0.054-7.675,0.001
		c-1.222-0.025-1.424,0.454-1.312,1.599c0.442,4.53,0.776,9.071,1.139,13.609c1.01,12.661,2.008,25.322,3.024,37.982
		c0.23,2.866,0.523,5.727,0.777,8.591c0.06,0.663,0.099,1.286,1.008,1.311c3.479,0.094,6.95,0.039,10.527-0.215
		c-1.352-1.931-1.476-2.883-0.51-3.681c0.77-0.636,1.688-0.693,2.407-0.032c1.415,1.3,0.354,2.518-0.688,3.881
		c2.713,0.028,5.025,0.224,7.591-0.196c-1.39-0.788-0.416-2.102-1.013-3.022L444.934,143.074z M478.188,99.396
		c0.468-0.335,0.641-0.397,0.711-0.52c5.215-9,9.836-18.264,11.919-28.556c1.325-6.548,1.784-13.129-0.274-19.654
		c-0.818-2.59-1.644-5.184-3.351-7.357c-1.927-2.454-4.501-2.358-6.338,0.188c-0.422,0.585-0.706,1.236-0.949,1.919
		c-1.103,3.109-1.732,6.287-1.727,9.603c0.021,14.056,0.009,28.111,0.009,42.167C478.188,97.804,478.188,98.423,478.188,99.396z
		 M109.383,99.064c0.142,0.048,0.283,0.097,0.425,0.145c0.631-1.069,1.299-2.119,1.888-3.21c5.132-9.509,9.677-19.231,10.967-30.143
		c0.752-6.366,0.324-12.582-2.167-18.564c-0.615-1.477-1.283-2.926-2.314-4.165c-1.809-2.171-4.322-2.118-6.04,0.162
		c-0.471,0.626-0.855,1.358-1.111,2.1c-1.019,2.951-1.684,5.954-1.669,9.125c0.055,12.216,0.021,24.434,0.021,36.651
		C109.383,93.798,109.383,96.431,109.383,99.064z M579.718,123.777c5.748,0.458,10.897-0.676,15.802-3.036
		c1.593-0.767,3.042-1.762,4.228-3.09c1.959-2.195,2.503-6.024,1.237-8.527c-1.386-2.74-4.31-4.166-7.63-3.767
		c-3.477,0.417-6.072,2.325-8.198,4.924C581.985,114.155,580.35,118.679,579.718,123.777z M288.474,124.676
		c0.081,11.401,9.507,20.718,20.873,20.63c11.408-0.088,20.795-9.551,20.686-20.854c-0.112-11.586-9.497-20.854-21.017-20.755
		C297.661,103.794,288.393,113.259,288.474,124.676z M396.666,124.854c0.236-11.382-8.938-20.92-20.346-21.15
		c-11.279-0.228-20.895,8.911-21.145,20.097c-0.263,11.782,8.76,21.378,20.445,21.478
		C387.273,145.377,396.428,136.319,396.666,124.854z M73.025,135.365c-3.602,0-6.875-0.056-10.146,0.024
		c-1.591,0.04-3.188,0.335-4.571,1.216c-2.303,1.465-2.336,4.24-0.036,5.624c2.975,1.789,6.015,1.969,9.016,0.032
		C69.827,140.623,71.637,138.366,73.025,135.365z M651.596,135.445c-3.851,0-7.412-0.076-10.968,0.042
		c-1.238,0.041-2.527,0.358-3.633,1.059c-2.411,1.529-2.436,4.365,0.025,5.769c2.99,1.707,6.038,1.876,9.003-0.118
		C648.451,140.566,650.272,138.417,651.596,135.445z M53.209,104.679c1.204-2.125,2.039-4.152,2.364-6.369
		c0.168-1.146-0.276-2.038-1.276-2.591c-0.864-0.478-1.852-0.706-2.724-0.154c-1.168,0.739-1.616,1.939-1.489,3.293
		C50.299,101.141,51.011,103.191,53.209,104.679z M631.798,104.683c1.198-2.05,2.159-4.027,2.332-6.287
		c0.142-1.869-0.765-2.925-2.503-3.084c-1.563-0.143-2.756,0.989-2.852,2.832C628.638,100.767,629.516,102.952,631.798,104.683z"/>
	<path fill-rule="evenodd" clip-rule="evenodd" fill="#2A1018" d="M548.656,88.752c-1.959-1.868-3.887-3.644-5.736-5.497
		c-0.842-0.843-1.48-1.866-1.958-2.979c-0.814-1.896-0.529-3.637,0.857-5.046c1.343-1.364,3.33-1.844,5.035-0.784
		c1.335,0.83,2.23,0.834,3.555-0.017c1.63-1.047,3.66-0.559,5.035,0.792c1.419,1.394,1.721,3.106,0.892,5.029
		c-0.574,1.333-1.387,2.5-2.437,3.502C552.229,85.346,550.559,86.938,548.656,88.752z"/>
	<path fill-rule="evenodd" clip-rule="evenodd" fill="#AC90C0" d="M444.977,143.033c0.597,0.92-0.377,2.234,1.013,3.022
		c-2.565,0.42-4.878,0.225-7.591,0.196c1.042-1.364,2.103-2.581,0.688-3.881c-0.72-0.661-1.638-0.604-2.407,0.032
		c-0.966,0.798-0.842,1.75,0.51,3.681c-3.577,0.254-7.049,0.309-10.527,0.215c-0.909-0.024-0.948-0.648-1.008-1.311
		c-0.254-2.864-0.547-5.725-0.777-8.591c-1.017-12.66-2.015-25.321-3.024-37.982c-0.362-4.538-0.696-9.079-1.139-13.609
		c-0.111-1.145,0.091-1.624,1.312-1.599c2.557,0.053,5.117,0.061,7.675-0.001c1.188-0.029,1.481,0.534,1.548,1.581
		c0.173,2.711,0.441,5.417,0.642,8.127c0.711,9.646,1.406,19.292,2.118,28.938c0.053,0.714,0.113,1.442,0.303,2.127
		c0.236,0.858,0.873,1.361,1.791,1.26c0.897-0.099,1.469-0.688,1.547-1.573c0.069-0.789-0.014-1.596-0.073-2.391
		c-0.879-11.717-1.775-23.432-2.643-35.149c-0.246-3.321-0.436-2.935,2.805-2.942c5.916-0.014,11.833-0.015,17.75,0.002
		c1.965,0.006,1.97,0.075,1.812,2.053c-0.783,9.874-1.451,19.758-2.355,29.621c-0.663,7.23-0.864,14.497-1.791,21.707
		c-0.314,2.447-0.289,4.937-0.447,7.405c-0.143,2.209-0.214,2.274-2.387,2.265c-0.616-0.003-1.263,0.162-1.851-0.184
		c0-0.163-0.055-0.343,0.009-0.46c0.551-1.026,0.635-2.053-0.359-2.797c-0.877-0.656-1.822-0.452-2.597,0.32
		c-0.248,0.247-0.399,0.064-0.588-0.04c-0.138-0.614,0.494-0.939,0.543-1.509c0.103-1.176-0.501-2.124-1.553-2.297
		c-0.945-0.156-2.07,0.753-2.166,1.75c-0.097,1.011,0.704,1.943,1.824,2.058C444.041,143.123,444.512,143.051,444.977,143.033z
		 M431.995,138.254c0.014-0.543,0.094-1.094,0.028-1.627c-0.126-1.026-1.016-1.771-1.924-1.699
		c-0.984,0.078-1.886,1.186-1.757,2.158c0.144,1.083,1.075,1.759,2.189,1.682c0.575-0.04,0.885-0.699,1.502-0.554
		c0.706,0.58-0.125,1.09-0.088,1.66c0.074,1.109,0.841,2.074,1.835,2.099c0.918,0.023,1.957-1.07,1.934-2.035
		c-0.025-1.067-0.925-1.815-2.062-1.837C433.086,138.088,432.604,138.894,431.995,138.254z M441.942,132.465
		c-0.048-0.916-0.969-1.847-1.843-1.864c-1.015-0.02-1.943,0.975-1.898,2.032c0.046,1.109,0.973,1.921,2.066,1.81
		C441.203,134.35,441.992,133.417,441.942,132.465z M435.408,133.81c0.031-1.089-0.634-1.864-1.664-1.938
		c-1.071-0.078-2.053,0.794-2.078,1.845c-0.022,0.952,1.062,2.059,1.981,2.024C434.547,135.707,435.381,134.792,435.408,133.81z
		 M440.029,139.074c0.026-0.969-0.771-1.847-1.74-1.914c-1.117-0.079-1.996,0.733-2.012,1.857c-0.013,0.954,0.801,1.904,1.709,1.996
		C438.907,141.105,440.003,140.066,440.029,139.074z M446.744,135.885c-0.019-1.008-1.077-2.016-2.022-1.927
		c-0.924,0.087-1.731,1.015-1.721,1.976c0.013,1.127,0.895,1.95,2.006,1.873C445.951,137.741,446.763,136.844,446.744,135.885z
		 M429.941,142.044c-0.059-0.92-0.986-1.838-1.863-1.843c-1.015-0.006-1.933,0.999-1.877,2.054c0.059,1.106,0.997,1.91,2.087,1.789
		C429.218,143.94,430.002,142.991,429.941,142.044z M451.261,130.605c-0.884,0.047-1.811,1.02-1.823,1.912
		c-0.014,1.068,0.935,1.993,1.99,1.939c0.998-0.05,1.806-0.888,1.791-1.859C453.202,131.49,452.279,130.551,451.261,130.605z
		 M427.028,133.495c0.95,0.044,1.854-0.751,1.953-1.717c0.102-0.989-0.834-2.098-1.807-2.142c-0.921-0.041-1.84,0.792-1.934,1.754
		C425.133,132.493,425.941,133.445,427.028,133.495z M449.838,138.284c-0.981,0.042-1.935,1.146-1.83,2.12
		c0.105,0.983,0.972,1.758,1.938,1.732c1.093-0.03,1.88-0.949,1.783-2.082C451.643,139.059,450.772,138.245,449.838,138.284z"/>
	<path fill-rule="evenodd" clip-rule="evenodd" fill="#FDB821" d="M288.474,124.676c-0.081-11.417,9.187-20.882,20.542-20.979
		c11.521-0.098,20.905,9.169,21.017,20.755c0.109,11.303-9.278,20.766-20.686,20.854
		C297.98,145.395,288.554,136.078,288.474,124.676z M309.038,144.091c10.872,0.074,19.725-8.482,19.833-19.168
		c0.111-11.07-8.547-20-19.478-20.087c-10.771-0.086-19.904,8.764-19.848,19.501C289.61,136.855,299.808,144.338,309.038,144.091z"
		/>
	<path fill-rule="evenodd" clip-rule="evenodd" fill="#FDB821" d="M396.666,124.854c-0.238,11.465-9.393,20.523-21.046,20.424
		c-11.685-0.1-20.708-9.696-20.445-21.478c0.25-11.186,9.866-20.325,21.145-20.097C387.729,103.934,396.902,113.472,396.666,124.854
		z M375.931,144.096c10.952-0.007,19.672-8.713,19.646-19.613c-0.027-10.736-8.736-19.524-19.467-19.643
		c-10.878-0.12-19.899,8.821-19.889,19.714C356.231,135.444,364.965,144.104,375.931,144.096z"/>
	<path fill-rule="evenodd" clip-rule="evenodd" fill="#2A1018" d="M431.996,138.254c0.608,0.64,1.09-0.166,1.657-0.155
		c1.137,0.022,2.036,0.771,2.062,1.837c0.023,0.965-1.016,2.058-1.934,2.035c-0.994-0.025-1.761-0.99-1.835-2.099
		c-0.037-0.57,0.794-1.08,0.088-1.66L431.996,138.254z"/>
	<path fill-rule="evenodd" clip-rule="evenodd" fill="#2A1018" d="M441.942,132.465c0.05,0.952-0.739,1.884-1.675,1.979
		c-1.094,0.111-2.021-0.701-2.066-1.81c-0.045-1.058,0.884-2.052,1.898-2.032C440.974,130.618,441.895,131.549,441.942,132.465z"/>
	<path fill-rule="evenodd" clip-rule="evenodd" fill="#2A1018" d="M435.408,133.81c-0.027,0.982-0.861,1.897-1.761,1.931
		c-0.92,0.035-2.004-1.073-1.981-2.024c0.025-1.051,1.007-1.923,2.078-1.845C434.774,131.946,435.439,132.721,435.408,133.81z"/>
	<path fill-rule="evenodd" clip-rule="evenodd" fill="#2A1018" d="M440.029,139.074c-0.026,0.992-1.122,2.031-2.043,1.938
		c-0.908-0.091-1.722-1.042-1.709-1.996c0.016-1.124,0.895-1.936,2.012-1.857C439.258,137.228,440.056,138.105,440.029,139.074z"/>
	<path fill-rule="evenodd" clip-rule="evenodd" fill="#2A1018" d="M446.744,135.885c0.019,0.959-0.793,1.855-1.737,1.921
		c-1.111,0.077-1.993-0.746-2.006-1.873c-0.011-0.961,0.797-1.889,1.721-1.976C445.667,133.869,446.726,134.877,446.744,135.885z"/>
	<path fill-rule="evenodd" clip-rule="evenodd" fill="#2A1018" d="M429.941,142.044c0.061,0.947-0.724,1.896-1.653,2
		c-1.09,0.121-2.028-0.683-2.087-1.789c-0.056-1.055,0.862-2.06,1.877-2.054C428.955,140.206,429.883,141.124,429.941,142.044z"/>
	<path fill-rule="evenodd" clip-rule="evenodd" fill="#2A1018" d="M451.261,130.605c1.019-0.054,1.941,0.885,1.958,1.993
		c0.015,0.971-0.793,1.809-1.791,1.859c-1.056,0.053-2.004-0.871-1.99-1.939C449.45,131.625,450.377,130.652,451.261,130.605z"/>
	<path fill-rule="evenodd" clip-rule="evenodd" fill="#2A1018" d="M427.028,133.495c-1.087-0.05-1.896-1.002-1.787-2.104
		c0.094-0.962,1.013-1.795,1.934-1.754c0.973,0.043,1.908,1.153,1.807,2.142C428.883,132.744,427.979,133.539,427.028,133.495z"/>
	<path fill-rule="evenodd" clip-rule="evenodd" fill="#2A1018" d="M432.034,138.213c-0.617-0.145-0.927,0.514-1.502,0.554
		c-1.114,0.077-2.046-0.598-2.189-1.682c-0.129-0.972,0.772-2.08,1.757-2.158c0.908-0.072,1.798,0.673,1.924,1.699
		c0.065,0.533-0.015,1.084-0.028,1.627C431.996,138.254,432.034,138.213,432.034,138.213z"/>
	<path fill-rule="evenodd" clip-rule="evenodd" fill="#2A1018" d="M444.977,143.033c-0.465,0.018-0.936,0.09-1.395,0.043
		c-1.12-0.115-1.921-1.047-1.824-2.058c0.096-0.997,1.221-1.906,2.166-1.75c1.052,0.173,1.655,1.121,1.553,2.297
		c-0.049,0.569-0.681,0.895-0.543,1.509L444.977,143.033z"/>
	<path fill-rule="evenodd" clip-rule="evenodd" fill="#2A1018" d="M449.838,138.284c0.935-0.04,1.805,0.775,1.891,1.771
		c0.097,1.132-0.69,2.052-1.783,2.082c-0.966,0.026-1.832-0.749-1.938-1.732C447.903,139.43,448.856,138.326,449.838,138.284z"/>
	<path fill-rule="evenodd" clip-rule="evenodd" fill="#F7F0E6" d="M309.038,144.091c-9.23,0.248-19.428-7.235-19.493-19.754
		c-0.057-10.737,9.077-19.588,19.848-19.501c10.931,0.088,19.589,9.017,19.478,20.087
		C328.763,135.608,319.91,144.165,309.038,144.091z M307.088,122.518c0.123,0.082,0.293,0.261,0.358,0.229
		c0.296-0.146,0.174-0.37,0.036-0.574c-1.3-4.352-3.026-8.553-4.514-12.838c-0.3-0.867-0.737-1.187-1.585-0.759
		c-3.061,1.547-5.509,3.763-7.309,6.693c-0.42,0.684-0.371,1.139,0.429,1.494C298.72,118.633,302.784,120.837,307.088,122.518z
		 M309.334,122.557c2.256-4.776,4.328-9.156,6.394-13.538c0.39-0.827-0.131-1.174-0.797-1.381c-3.183-0.989-6.411-1.161-9.672-0.459
		c-0.779,0.167-1.297,0.536-0.946,1.499C305.948,113.155,307.559,117.642,309.334,122.557z M310.976,122.5
		c0.123,0.156,0.245,0.311,0.368,0.467c4.461-1.62,8.919-3.248,13.386-4.853c0.709-0.254,0.825-0.672,0.52-1.285
		c-1.715-3.441-4.175-6.149-7.808-8.019C315.245,113.462,313.111,117.981,310.976,122.5z M311.278,126.287
		c-0.153,0.12-0.307,0.24-0.46,0.359c1.625,4.479,3.248,8.959,4.876,13.438c0.273,0.751,0.803,0.64,1.358,0.366
		c1.808-0.893,3.427-2.048,4.833-3.498c1.204-1.242,2.287-2.562,3.052-4.264C320.228,130.481,315.753,128.384,311.278,126.287z
		 M311.225,124.581c4.755,2.249,9.136,4.326,13.523,6.388c0.638,0.3,1.052,0.043,1.272-0.622c1.109-3.346,1.27-6.726,0.422-10.154
		c-0.233-0.945-0.879-0.802-1.495-0.582C320.518,121.2,316.095,122.813,311.225,124.581z M306.747,124.607
		c-0.255-0.39-0.309-0.581-0.427-0.637c-4.044-1.911-8.102-3.792-12.137-5.722c-1.12-0.535-1.561-0.109-1.879,0.942
		c-0.924,3.051-1.084,6.117-0.402,9.236c0.214,0.979,0.614,1.366,1.663,0.977C297.903,127.794,302.261,126.234,306.747,124.607z
		 M307.203,126.417c-0.143-0.05-0.314-0.179-0.427-0.139c-4.285,1.515-8.561,3.053-12.846,4.566
		c-0.986,0.348-0.89,0.979-0.522,1.692c1.458,2.829,3.48,5.159,6.177,6.87c1.327,0.842,1.432,0.832,2.118-0.603
		c1.828-3.818,3.61-7.658,5.402-11.493C307.233,127.036,307.355,126.735,307.203,126.417z M302.377,140.853
		c4.1,1.616,7.98,1.773,11.944,0.616c-0.573-2.987-4.388-13.068-5.463-14.348C306.721,131.65,304.612,136.118,302.377,140.853z"/>
	<path fill-rule="evenodd" clip-rule="evenodd" fill="#F7F0E6" d="M375.931,144.096c-10.966,0.008-19.7-8.652-19.71-19.542
		c-0.01-10.893,9.01-19.834,19.889-19.714c10.73,0.119,19.439,8.907,19.467,19.643C395.603,135.383,386.883,144.089,375.931,144.096
		z M373.786,122.539c0.126,0.078,0.304,0.252,0.368,0.217c0.292-0.16,0.152-0.377,0.006-0.574c-1.509-4.282-3.033-8.56-4.517-12.851
		c-0.299-0.865-0.738-1.176-1.588-0.752c-3.077,1.536-5.503,3.779-7.314,6.698c-0.426,0.686-0.331,1.147,0.453,1.498
		C365.407,118.661,369.482,120.85,373.786,122.539z M377.979,126.46c-0.182-0.137-0.375-0.201-0.513,0.03
		c-0.023,0.039,0.145,0.192,0.224,0.293c0.97,4.501,3.126,8.592,4.491,12.958c0.263,0.841,0.735,1.14,1.615,0.686
		c2.976-1.534,5.369-3.686,7.187-6.502c0.605-0.938,0.278-1.442-0.614-1.831C386.209,130.283,382.227,128.08,377.979,126.46z
		 M376.01,122.558c2.375-5.043,4.537-9.634,6.693-14.212c-3.488-1.934-8.71-2.14-12.006-0.471
		C372.409,112.608,374.13,117.362,376.01,122.558z M374.255,126.276c-2.4,0.388-12.582,4.037-14.522,5.112
		c1.336,3.908,4.584,7.383,8.104,8.572C369.924,135.51,372.018,131.046,374.255,126.276z M377.885,124.578
		c4.786,2.27,9.099,4.316,13.413,6.359c0.955,0.452,1.296-0.148,1.524-0.912c0.931-3.121,1.109-6.261,0.39-9.463
		c-0.245-1.093-0.754-1.265-1.688-0.925C387.176,121.218,382.824,122.79,377.885,124.578z M373.33,124.64
		c0.007-0.169,0.014-0.338,0.021-0.507c-4.302-2.011-8.604-4.025-12.909-6.03c-0.798-0.371-1.157,0.082-1.377,0.781
		c-1.001,3.179-1.23,6.387-0.466,9.658c0.255,1.091,0.805,1.166,1.738,0.821C364.66,127.766,368.998,126.21,373.33,124.64z
		 M377.772,123.046c4.736-1.714,9.261-3.353,13.785-4.991c0.608-0.22,0.609-0.648,0.373-1.142c-1.69-3.53-4.241-6.197-7.838-8.139
		c-2.145,4.593-4.165,8.914-6.174,13.239C377.831,122.204,377.854,122.444,377.772,123.046z M376.087,127.227
		c-0.192-0.029-0.385-0.058-0.576-0.086c-2.136,4.546-4.271,9.092-6.447,13.723c4.142,1.619,8.004,1.753,12.145,0.541
		C379.469,136.588,377.777,131.908,376.087,127.227z"/>
	<path fill-rule="evenodd" clip-rule="evenodd" fill="#FDB821" d="M309.334,122.557c-1.775-4.915-3.386-9.402-5.021-13.879
		c-0.352-0.963,0.167-1.331,0.946-1.499c3.262-0.702,6.49-0.529,9.672,0.459c0.666,0.207,1.187,0.554,0.797,1.381
		C313.662,113.401,311.59,117.78,309.334,122.557z M309.449,118.263c1.087-0.733,1.337-1.838,1.482-2.906
		c0.113-0.84-0.246-1.625-1.266-1.666c-0.995-0.04-1.421,0.638-1.44,1.531C308.202,116.357,308.57,117.369,309.449,118.263z"/>
	<path fill-rule="evenodd" clip-rule="evenodd" fill="#FDB821" d="M310.976,122.5c2.135-4.519,4.269-9.039,6.465-13.689
		c3.633,1.87,6.093,4.578,7.808,8.019c0.306,0.613,0.19,1.03-0.52,1.285c-4.467,1.604-8.925,3.232-13.386,4.853
		C311.221,122.812,311.099,122.656,310.976,122.5z M313.891,120.395c1.909-0.244,2.489-0.409,3.029-0.902
		c0.635-0.581,1.03-1.242,0.435-2.072c-0.516-0.721-1.557-0.742-2.271,0.027C314.375,118.21,313.889,119.119,313.891,120.395z"/>
	<path fill-rule="evenodd" clip-rule="evenodd" fill="#FDB821" d="M311.278,126.287c4.475,2.097,8.949,4.194,13.66,6.401
		c-0.765,1.702-1.848,3.021-3.052,4.264c-1.406,1.45-3.025,2.604-4.833,3.498c-0.556,0.274-1.085,0.386-1.358-0.366
		c-1.628-4.478-3.251-8.958-4.876-13.438C310.972,126.527,311.125,126.407,311.278,126.287z M313.071,129.224
		c-0.312,1.204,0.228,2.004,0.683,2.812c0.369,0.655,0.901,1.078,1.728,0.975c0.527-0.066,0.917-0.336,1.043-0.823
		c0.229-0.887-0.26-1.508-0.934-1.99C314.881,129.688,314.09,129.354,313.071,129.224z"/>
	<path fill-rule="evenodd" clip-rule="evenodd" fill="#FDB821" d="M307.088,122.518c-4.304-1.681-8.368-3.885-12.585-5.755
		c-0.799-0.354-0.849-0.81-0.429-1.494c1.8-2.93,4.248-5.146,7.309-6.693c0.848-0.428,1.285-0.108,1.585,0.759
		c1.488,4.285,3.213,8.486,4.514,12.838C307.351,122.288,307.219,122.403,307.088,122.518z M305.131,119.914
		c-0.12-1.217-0.428-2.24-1.187-3.067c-0.571-0.621-1.271-1.004-2.069-0.345c-0.667,0.552-0.615,1.568,0.183,2.267
		C302.88,119.489,303.805,120.063,305.131,119.914z"/>
	<path fill-rule="evenodd" clip-rule="evenodd" fill="#FDB821" d="M311.225,124.581c4.87-1.768,9.292-3.381,13.723-4.971
		c0.615-0.22,1.261-0.363,1.495,0.582c0.847,3.429,0.687,6.809-0.422,10.154c-0.22,0.665-0.634,0.922-1.272,0.622
		C320.361,128.906,315.98,126.829,311.225,124.581z M315.504,125.161c1.098,0.785,2.098,1.42,3.339,1.402
		c0.77-0.012,1.399-0.427,1.42-1.31c0.021-0.875-0.542-1.31-1.346-1.367C317.683,123.797,316.627,124.261,315.504,125.161z"/>
	<path fill-rule="evenodd" clip-rule="evenodd" fill="#FDB821" d="M306.747,124.607c-4.486,1.627-8.843,3.187-13.182,4.796
		c-1.049,0.389-1.449,0.002-1.663-0.977c-0.683-3.119-0.522-6.185,0.402-9.236c0.319-1.051,0.76-1.477,1.879-0.942
		c4.035,1.93,8.093,3.811,12.137,5.722C306.438,124.026,306.491,124.217,306.747,124.607z M302.892,124.306
		c-0.923-0.847-1.835-1.287-2.869-1.406c-1.088-0.125-1.897,0.471-1.897,1.302c0,0.792,0.866,1.545,1.846,1.442
		C300.99,125.538,301.974,125.233,302.892,124.306z"/>
	<path fill-rule="evenodd" clip-rule="evenodd" fill="#FDB821" d="M307.202,126.417c0.153,0.318,0.031,0.619-0.097,0.894
		c-1.792,3.835-3.575,7.675-5.402,11.493c-0.687,1.434-0.791,1.445-2.118,0.603c-2.697-1.711-4.72-4.042-6.177-6.87
		c-0.368-0.714-0.464-1.344,0.522-1.692c4.286-1.513,8.562-3.051,12.846-4.566C306.888,126.238,307.06,126.367,307.202,126.417z
		 M304.681,128.671c-1.039,0.192-1.859,0.431-2.61,0.886c-0.723,0.438-1.263,0.995-1.101,1.922c0.089,0.509,0.43,0.858,0.943,0.945
		c0.914,0.155,1.524-0.358,1.965-1.061C304.336,130.636,304.81,129.889,304.681,128.671z"/>
	<path fill-rule="evenodd" clip-rule="evenodd" fill="#FDB821" d="M302.377,140.853c2.235-4.735,4.343-9.203,6.481-13.732
		c1.075,1.28,4.89,11.361,5.463,14.348C310.357,142.626,306.477,142.468,302.377,140.853z M308.844,130.625
		c-1.012,0.862-1.316,1.863-1.512,2.863c-0.201,1.029,0.46,1.888,1.324,1.86c0.994-0.032,1.384-0.701,1.41-1.584
		C310.101,132.608,309.664,131.602,308.844,130.625z"/>
	<path fill-rule="evenodd" clip-rule="evenodd" fill="#FDB821" d="M307.482,122.173c0.138,0.204,0.26,0.428-0.036,0.574
		c-0.065,0.032-0.236-0.147-0.358-0.229C307.219,122.403,307.351,122.288,307.482,122.173z"/>
	<path fill-rule="evenodd" clip-rule="evenodd" fill="#FDB821" d="M376.01,122.558c-1.88-5.196-3.601-9.95-5.312-14.683
		c3.296-1.668,8.518-1.462,12.006,0.471C380.547,112.924,378.385,117.515,376.01,122.558z M376.128,118.245
		c1.045-0.691,1.353-1.784,1.51-2.864c0.123-0.848-0.263-1.621-1.268-1.684c-0.998-0.063-1.448,0.607-1.473,1.503
		C374.864,116.345,375.229,117.375,376.128,118.245z"/>
	<path fill-rule="evenodd" clip-rule="evenodd" fill="#FDB821" d="M377.98,126.456c4.246,1.624,8.229,3.827,12.389,5.638
		c0.893,0.389,1.22,0.893,0.614,1.831c-1.817,2.816-4.211,4.968-7.187,6.502c-0.88,0.454-1.353,0.155-1.615-0.686
		c-1.365-4.365-3.521-8.456-4.491-12.958C377.8,126.686,377.896,126.576,377.98,126.456z M379.693,129.237
		c0.168,1.706,0.41,2.492,0.904,3.084c0.655,0.786,1.748,0.974,2.261,0.326c0.593-0.749,0.389-1.508-0.238-2.129
		C381.867,129.771,380.923,129.391,379.693,129.237z"/>
	<path fill-rule="evenodd" clip-rule="evenodd" fill="#FDB821" d="M374.255,126.276c-2.237,4.77-4.331,9.234-6.418,13.685
		c-3.519-1.189-6.768-4.664-8.104-8.572C361.673,130.312,371.854,126.664,374.255,126.276z M371.415,128.747
		c-1.177,0.055-2.036,0.424-2.845,0.919c-0.655,0.401-1.047,0.971-0.912,1.784c0.085,0.515,0.391,0.87,0.904,0.977
		c0.809,0.169,1.391-0.265,1.833-0.855C370.967,130.81,371.419,129.977,371.415,128.747z"/>
	<path fill-rule="evenodd" clip-rule="evenodd" fill="#FDB821" d="M377.885,124.578c4.939-1.788,9.291-3.359,13.639-4.941
		c0.935-0.34,1.443-0.168,1.688,0.925c0.72,3.202,0.541,6.342-0.39,9.463c-0.229,0.764-0.569,1.364-1.524,0.912
		C386.983,128.894,382.671,126.847,377.885,124.578z M382.265,125.108c0.813,0.883,1.789,1.23,2.79,1.432
		c1.06,0.213,1.916-0.412,1.882-1.286c-0.04-1.009-0.737-1.373-1.617-1.365C384.195,123.899,383.2,124.304,382.265,125.108z"/>
	<path fill-rule="evenodd" clip-rule="evenodd" fill="#FDB821" d="M373.785,122.539c-4.303-1.689-8.378-3.878-12.592-5.764
		c-0.784-0.351-0.879-0.812-0.453-1.498c1.812-2.918,4.238-5.162,7.314-6.698c0.851-0.424,1.289-0.113,1.588,0.752
		c1.484,4.291,3.008,8.568,4.517,12.851C374.035,122.301,373.91,122.42,373.785,122.539z M371.909,119.932
		c-0.34-1.283-0.562-2.423-1.481-3.261c-0.578-0.527-1.247-0.765-1.896-0.143c-0.609,0.583-0.598,1.328-0.093,1.928
		C369.272,119.448,370.326,120.067,371.909,119.932z"/>
	<path fill-rule="evenodd" clip-rule="evenodd" fill="#FDB821" d="M373.33,124.64c-4.332,1.571-8.67,3.126-12.993,4.724
		c-0.933,0.345-1.483,0.27-1.738-0.821c-0.764-3.271-0.535-6.479,0.466-9.658c0.22-0.699,0.579-1.152,1.377-0.781
		c4.305,2.005,8.606,4.019,12.909,6.03C373.344,124.302,373.337,124.471,373.33,124.64z M369.642,124.297
		c-1.9-1.194-2.307-1.375-3.023-1.411c-0.884-0.043-1.595,0.225-1.802,1.168c-0.171,0.782,0.674,1.646,1.669,1.602
		C367.59,125.607,368.616,125.229,369.642,124.297z"/>
	<path fill-rule="evenodd" clip-rule="evenodd" fill="#FDB821" d="M377.772,123.046c0.081-0.602,0.059-0.843,0.146-1.033
		c2.009-4.326,4.029-8.646,6.174-13.239c3.597,1.941,6.147,4.609,7.838,8.139c0.236,0.494,0.235,0.922-0.373,1.142
		C387.033,119.694,382.509,121.332,377.772,123.046z M380.539,120.429c1.204,0.125,2.053-0.321,2.864-0.816
		c0.566-0.346,0.952-0.884,0.868-1.584c-0.058-0.483-0.315-0.903-0.844-1.056c-0.799-0.231-1.406,0.106-1.88,0.703
		C380.949,118.431,380.509,119.264,380.539,120.429z"/>
	<path fill-rule="evenodd" clip-rule="evenodd" fill="#FDB821" d="M376.087,127.227c1.69,4.681,3.382,9.361,5.122,14.178
		c-4.141,1.212-8.003,1.078-12.145-0.541c2.175-4.63,4.311-9.177,6.447-13.723C375.702,127.169,375.895,127.198,376.087,127.227z
		 M375.475,130.631c-0.917,0.807-1.209,1.718-1.438,2.631c-0.182,0.725-0.05,1.442,0.634,1.904c0.426,0.288,0.911,0.287,1.341,0.003
		c0.68-0.448,0.843-1.142,0.712-1.887C376.561,132.344,376.273,131.443,375.475,130.631z"/>
	<path fill-rule="evenodd" clip-rule="evenodd" fill="#FDB821" d="M377.69,126.784c-0.079-0.101-0.247-0.255-0.224-0.293
		c0.138-0.23,0.331-0.167,0.514-0.032C377.896,126.576,377.8,126.686,377.69,126.784z"/>
	<path fill-rule="evenodd" clip-rule="evenodd" fill="#FDB821" d="M374.16,122.182c0.146,0.196,0.286,0.414-0.006,0.574
		c-0.064,0.035-0.242-0.139-0.368-0.217C373.91,122.42,374.035,122.301,374.16,122.182z"/>
	<path fill-rule="evenodd" clip-rule="evenodd" fill="#F7F0E6" d="M309.449,118.263c-0.879-0.895-1.247-1.906-1.224-3.042
		c0.019-0.893,0.445-1.57,1.44-1.531c1.02,0.041,1.379,0.826,1.266,1.666C310.787,116.425,310.536,117.53,309.449,118.263z"/>
	<path fill-rule="evenodd" clip-rule="evenodd" fill="#F7F0E6" d="M313.891,120.395c-0.001-1.276,0.484-2.185,1.193-2.947
		c0.714-0.77,1.755-0.748,2.271-0.027c0.595,0.83,0.2,1.492-0.435,2.072C316.379,119.986,315.799,120.151,313.891,120.395z"/>
	<path fill-rule="evenodd" clip-rule="evenodd" fill="#F7F0E6" d="M313.071,129.224c1.019,0.13,1.81,0.464,2.52,0.973
		c0.673,0.482,1.162,1.103,0.934,1.99c-0.125,0.487-0.516,0.757-1.043,0.823c-0.827,0.104-1.358-0.319-1.728-0.975
		C313.299,131.228,312.759,130.428,313.071,129.224z"/>
	<path fill-rule="evenodd" clip-rule="evenodd" fill="#F7F0E6" d="M305.131,119.914c-1.326,0.149-2.25-0.425-3.073-1.145
		c-0.798-0.699-0.851-1.715-0.183-2.267c0.798-0.659,1.499-0.276,2.069,0.345C304.703,117.673,305.011,118.696,305.131,119.914z"/>
	<path fill-rule="evenodd" clip-rule="evenodd" fill="#F7F0E6" d="M315.504,125.161c1.123-0.899,2.179-1.363,3.414-1.274
		c0.804,0.057,1.366,0.493,1.346,1.367c-0.021,0.883-0.65,1.298-1.42,1.31C317.603,126.581,316.603,125.946,315.504,125.161z"/>
	<path fill-rule="evenodd" clip-rule="evenodd" fill="#F7F0E6" d="M302.892,124.306c-0.918,0.927-1.902,1.231-2.92,1.338
		c-0.98,0.103-1.846-0.65-1.846-1.442c0-0.832,0.809-1.427,1.897-1.302C301.057,123.02,301.969,123.459,302.892,124.306z"/>
	<path fill-rule="evenodd" clip-rule="evenodd" fill="#F7F0E6" d="M304.681,128.671c0.128,1.218-0.345,1.964-0.802,2.693
		c-0.441,0.703-1.051,1.216-1.965,1.061c-0.513-0.087-0.854-0.436-0.943-0.945c-0.163-0.928,0.378-1.484,1.101-1.922
		C302.822,129.103,303.642,128.863,304.681,128.671z"/>
	<path fill-rule="evenodd" clip-rule="evenodd" fill="#F7F0E6" d="M308.844,130.625c0.82,0.977,1.257,1.983,1.222,3.14
		c-0.026,0.883-0.416,1.552-1.41,1.584c-0.864,0.028-1.525-0.831-1.324-1.86C307.528,132.488,307.832,131.487,308.844,130.625z"/>
	<path fill-rule="evenodd" clip-rule="evenodd" fill="#F7F0E6" d="M376.128,118.245c-0.898-0.87-1.264-1.9-1.23-3.044
		c0.024-0.896,0.475-1.566,1.473-1.503c1.005,0.063,1.391,0.836,1.268,1.684C377.48,116.461,377.173,117.554,376.128,118.245z"/>
	<path fill-rule="evenodd" clip-rule="evenodd" fill="#F7F0E6" d="M379.693,129.237c1.229,0.153,2.174,0.534,2.927,1.281
		c0.627,0.622,0.831,1.38,0.238,2.129c-0.513,0.648-1.605,0.46-2.261-0.326C380.104,131.729,379.861,130.943,379.693,129.237z"/>
	<path fill-rule="evenodd" clip-rule="evenodd" fill="#F7F0E6" d="M371.415,128.747c0.004,1.229-0.448,2.063-1.02,2.825
		c-0.442,0.59-1.023,1.024-1.833,0.855c-0.513-0.107-0.819-0.462-0.904-0.977c-0.135-0.813,0.256-1.382,0.912-1.784
		C369.379,129.171,370.238,128.802,371.415,128.747z"/>
	<path fill-rule="evenodd" clip-rule="evenodd" fill="#F7F0E6" d="M382.265,125.108c0.936-0.804,1.931-1.209,3.055-1.219
		c0.88-0.008,1.577,0.356,1.617,1.365c0.034,0.874-0.822,1.499-1.882,1.286C384.054,126.338,383.078,125.991,382.265,125.108z"/>
	<path fill-rule="evenodd" clip-rule="evenodd" fill="#F7F0E6" d="M371.909,119.932c-1.583,0.135-2.637-0.484-3.471-1.476
		c-0.505-0.6-0.516-1.345,0.093-1.928c0.649-0.622,1.318-0.385,1.896,0.143C371.347,117.509,371.569,118.649,371.909,119.932z"/>
	<path fill-rule="evenodd" clip-rule="evenodd" fill="#F7F0E6" d="M369.642,124.297c-1.025,0.932-2.051,1.31-3.156,1.359
		c-0.995,0.044-1.84-0.82-1.669-1.602c0.207-0.944,0.918-1.212,1.802-1.168C367.334,122.922,367.741,123.103,369.642,124.297z"/>
	<path fill-rule="evenodd" clip-rule="evenodd" fill="#F7F0E6" d="M380.539,120.429c-0.03-1.165,0.41-1.998,1.009-2.753
		c0.474-0.597,1.081-0.934,1.88-0.703c0.528,0.152,0.786,0.572,0.844,1.056c0.084,0.7-0.302,1.239-0.868,1.584
		C382.592,120.108,381.743,120.554,380.539,120.429z"/>
	<path fill-rule="evenodd" clip-rule="evenodd" fill="#F7F0E6" d="M375.475,130.631c0.799,0.812,1.086,1.713,1.249,2.651
		c0.131,0.745-0.032,1.438-0.712,1.887c-0.43,0.284-0.915,0.285-1.341-0.003c-0.684-0.462-0.815-1.179-0.634-1.904
		C374.266,132.35,374.558,131.438,375.475,130.631z"/>
</g>
</svg>
